<mxfile host="app.diagrams.net" modified="2020-04-01T04:11:47.988Z" agent="Mozilla/5.0 (Windows NT 10.0; Win64; x64) AppleWebKit/537.36 (KHTML, like Gecko) Chrome/80.0.3987.149 Safari/537.36" etag="Q339Q6Rov_TlTLTxIe5u" version="12.8.8" type="github" pages="3">
  <diagram id="ZZfOL2nvoQY2b5dwmiEl" name="online">
    <mxGraphModel dx="2610" dy="903" grid="1" gridSize="10" guides="1" tooltips="1" connect="1" arrows="1" fold="1" page="1" pageScale="1" pageWidth="827" pageHeight="1169" math="0" shadow="0">
      <root>
        <mxCell id="0" />
        <mxCell id="1" parent="0" />
        <mxCell id="4Vz98ylFdLMkffaRlwxe-6" value="客户端" style="outlineConnect=0;gradientColor=none;fontColor=#545B64;strokeColor=none;fillColor=#B3B3B3;dashed=0;verticalLabelPosition=bottom;verticalAlign=top;align=center;html=1;fontSize=12;fontStyle=0;aspect=fixed;shape=mxgraph.aws4.illustration_devices;pointerEvents=1" vertex="1" parent="1">
          <mxGeometry x="80" y="200" width="100" height="73" as="geometry" />
        </mxCell>
        <mxCell id="4Vz98ylFdLMkffaRlwxe-23" value="HTTP请求" style="edgeStyle=orthogonalEdgeStyle;rounded=0;orthogonalLoop=1;jettySize=auto;html=1;startArrow=classic;startFill=1;" edge="1" parent="1" target="4Vz98ylFdLMkffaRlwxe-14">
          <mxGeometry relative="1" as="geometry">
            <mxPoint x="431" y="117" as="sourcePoint" />
          </mxGeometry>
        </mxCell>
        <mxCell id="4Vz98ylFdLMkffaRlwxe-9" value="网关服务器" style="rounded=1;whiteSpace=wrap;html=1;fillColor=#d5e8d4;strokeColor=#82b366;" vertex="1" parent="1">
          <mxGeometry x="340" width="90" height="320" as="geometry" />
        </mxCell>
        <mxCell id="4Vz98ylFdLMkffaRlwxe-10" value="数字人后台系统" style="rounded=1;whiteSpace=wrap;html=1;fillColor=#d5e8d4;strokeColor=#82b366;" vertex="1" parent="1">
          <mxGeometry x="80" y="10" width="120" height="60" as="geometry" />
        </mxCell>
        <mxCell id="4Vz98ylFdLMkffaRlwxe-13" value="APP服务器" style="rounded=1;whiteSpace=wrap;html=1;fillColor=#d5e8d4;strokeColor=#82b366;" vertex="1" parent="1">
          <mxGeometry x="340" y="350" width="90" height="60" as="geometry" />
        </mxCell>
        <mxCell id="4Vz98ylFdLMkffaRlwxe-41" value="get_status TTSA" style="edgeStyle=orthogonalEdgeStyle;rounded=0;orthogonalLoop=1;jettySize=auto;html=1;exitX=1;exitY=0.127;exitDx=0;exitDy=0;entryX=-0.004;entryY=0.068;entryDx=0;entryDy=0;entryPerimeter=0;startArrow=none;startFill=0;endArrow=classic;endFill=1;exitPerimeter=0;" edge="1" parent="1" source="4Vz98ylFdLMkffaRlwxe-14" target="4Vz98ylFdLMkffaRlwxe-16">
          <mxGeometry relative="1" as="geometry" />
        </mxCell>
        <mxCell id="4Vz98ylFdLMkffaRlwxe-14" value="状态中心服务器" style="rounded=1;whiteSpace=wrap;html=1;fillColor=#d5e8d4;strokeColor=#82b366;" vertex="1" parent="1">
          <mxGeometry x="560" width="120" height="233" as="geometry" />
        </mxCell>
        <mxCell id="4Vz98ylFdLMkffaRlwxe-69" style="edgeStyle=orthogonalEdgeStyle;rounded=0;orthogonalLoop=1;jettySize=auto;html=1;exitX=1;exitY=0.5;exitDx=0;exitDy=0;entryX=0;entryY=0.5;entryDx=0;entryDy=0;startArrow=none;startFill=0;endArrow=classic;endFill=1;fontSize=24;" edge="1" parent="1" source="4Vz98ylFdLMkffaRlwxe-16" target="4Vz98ylFdLMkffaRlwxe-60">
          <mxGeometry relative="1" as="geometry" />
        </mxCell>
        <mxCell id="4Vz98ylFdLMkffaRlwxe-16" value="" style="rounded=0;whiteSpace=wrap;html=1;fillColor=#f5f5f5;strokeColor=#666666;fontColor=#333333;" vertex="1" parent="1">
          <mxGeometry x="870" width="200" height="420" as="geometry" />
        </mxCell>
        <mxCell id="4Vz98ylFdLMkffaRlwxe-21" value="HTTP请求" style="endArrow=classic;html=1;entryX=0;entryY=0.5;entryDx=0;entryDy=0;" edge="1" parent="1">
          <mxGeometry width="50" height="50" relative="1" as="geometry">
            <mxPoint x="190" y="211" as="sourcePoint" />
            <mxPoint x="340" y="211" as="targetPoint" />
          </mxGeometry>
        </mxCell>
        <mxCell id="4Vz98ylFdLMkffaRlwxe-24" value="主" style="outlineConnect=0;fontColor=#232F3E;gradientColor=none;fillColor=#808080;strokeColor=none;dashed=0;verticalLabelPosition=bottom;verticalAlign=top;align=center;html=1;fontSize=12;fontStyle=0;aspect=fixed;pointerEvents=1;shape=mxgraph.aws4.rds_mysql_instance;" vertex="1" parent="1">
          <mxGeometry x="600" y="233" width="40" height="40" as="geometry" />
        </mxCell>
        <mxCell id="4Vz98ylFdLMkffaRlwxe-25" value="从" style="outlineConnect=0;fontColor=#232F3E;gradientColor=none;fillColor=#808080;strokeColor=none;dashed=0;verticalLabelPosition=bottom;verticalAlign=top;align=center;html=1;fontSize=12;fontStyle=0;aspect=fixed;pointerEvents=1;shape=mxgraph.aws4.rds_mysql_instance;" vertex="1" parent="1">
          <mxGeometry x="640" y="233" width="40" height="40" as="geometry" />
        </mxCell>
        <mxCell id="4Vz98ylFdLMkffaRlwxe-35" value="主" style="outlineConnect=0;fontColor=#232F3E;gradientColor=none;fillColor=#808080;strokeColor=none;dashed=0;verticalLabelPosition=bottom;verticalAlign=top;align=center;html=1;fontSize=12;fontStyle=0;aspect=fixed;pointerEvents=1;shape=mxgraph.aws4.rds_mysql_instance;" vertex="1" parent="1">
          <mxGeometry x="120" y="70" width="40" height="40" as="geometry" />
        </mxCell>
        <mxCell id="4Vz98ylFdLMkffaRlwxe-36" value="从" style="outlineConnect=0;fontColor=#232F3E;gradientColor=none;fillColor=#808080;strokeColor=none;dashed=0;verticalLabelPosition=bottom;verticalAlign=top;align=center;html=1;fontSize=12;fontStyle=0;aspect=fixed;pointerEvents=1;shape=mxgraph.aws4.rds_mysql_instance;" vertex="1" parent="1">
          <mxGeometry x="160" y="70" width="40" height="40" as="geometry" />
        </mxCell>
        <mxCell id="4Vz98ylFdLMkffaRlwxe-38" value="HTTP请求" style="edgeStyle=orthogonalEdgeStyle;rounded=0;orthogonalLoop=1;jettySize=auto;html=1;exitX=1;exitY=0.5;exitDx=0;exitDy=0;startArrow=classic;startFill=1;" edge="1" parent="1" source="4Vz98ylFdLMkffaRlwxe-10">
          <mxGeometry x="0.1133" relative="1" as="geometry">
            <mxPoint x="470" y="220" as="sourcePoint" />
            <mxPoint x="340" y="40" as="targetPoint" />
            <mxPoint as="offset" />
          </mxGeometry>
        </mxCell>
        <mxCell id="4Vz98ylFdLMkffaRlwxe-42" value="get_heartbeat UE4" style="edgeStyle=orthogonalEdgeStyle;rounded=0;orthogonalLoop=1;jettySize=auto;html=1;exitX=0.996;exitY=0.285;exitDx=0;exitDy=0;entryX=-0.002;entryY=0.156;entryDx=0;entryDy=0;entryPerimeter=0;startArrow=none;startFill=0;endArrow=classic;endFill=1;exitPerimeter=0;" edge="1" parent="1" source="4Vz98ylFdLMkffaRlwxe-14" target="4Vz98ylFdLMkffaRlwxe-16">
          <mxGeometry relative="1" as="geometry">
            <mxPoint x="690" y="39.59100000000001" as="sourcePoint" />
            <mxPoint x="879.2" y="38.56" as="targetPoint" />
          </mxGeometry>
        </mxCell>
        <mxCell id="4Vz98ylFdLMkffaRlwxe-43" value="get_status circus" style="edgeStyle=orthogonalEdgeStyle;rounded=0;orthogonalLoop=1;jettySize=auto;html=1;exitX=1.026;exitY=0.436;exitDx=0;exitDy=0;entryX=0.001;entryY=0.24;entryDx=0;entryDy=0;entryPerimeter=0;startArrow=none;startFill=0;endArrow=classic;endFill=1;exitPerimeter=0;" edge="1" parent="1" source="4Vz98ylFdLMkffaRlwxe-14" target="4Vz98ylFdLMkffaRlwxe-16">
          <mxGeometry relative="1" as="geometry">
            <mxPoint x="689.52" y="76.40500000000003" as="sourcePoint" />
            <mxPoint x="879.6000000000001" y="75.51999999999998" as="targetPoint" />
          </mxGeometry>
        </mxCell>
        <mxCell id="4Vz98ylFdLMkffaRlwxe-46" value="websocket" style="endArrow=classic;html=1;entryX=0;entryY=0.5;entryDx=0;entryDy=0;startArrow=classic;startFill=1;" edge="1" parent="1">
          <mxGeometry x="0.0684" width="50" height="50" relative="1" as="geometry">
            <mxPoint x="190" y="250" as="sourcePoint" />
            <mxPoint x="340" y="379.5" as="targetPoint" />
            <Array as="points">
              <mxPoint x="230" y="250" />
              <mxPoint x="230" y="380" />
            </Array>
            <mxPoint as="offset" />
          </mxGeometry>
        </mxCell>
        <mxCell id="4Vz98ylFdLMkffaRlwxe-47" value="" style="rounded=1;whiteSpace=wrap;html=1;fillColor=#FFB570;" vertex="1" parent="1">
          <mxGeometry x="890" y="80" width="160" height="50" as="geometry" />
        </mxCell>
        <mxCell id="4Vz98ylFdLMkffaRlwxe-49" value="" style="rounded=1;whiteSpace=wrap;html=1;fillColor=#FFB570;" vertex="1" parent="1">
          <mxGeometry x="890" y="150" width="160" height="50" as="geometry" />
        </mxCell>
        <mxCell id="4Vz98ylFdLMkffaRlwxe-50" value="" style="rounded=1;whiteSpace=wrap;html=1;fillColor=#FFB570;" vertex="1" parent="1">
          <mxGeometry x="890" y="218.5" width="160" height="50" as="geometry" />
        </mxCell>
        <mxCell id="4Vz98ylFdLMkffaRlwxe-51" value="" style="rounded=1;whiteSpace=wrap;html=1;fillColor=#FFB570;" vertex="1" parent="1">
          <mxGeometry x="890" y="288" width="160" height="50" as="geometry" />
        </mxCell>
        <mxCell id="4Vz98ylFdLMkffaRlwxe-55" value="声音" style="edgeStyle=orthogonalEdgeStyle;rounded=0;orthogonalLoop=1;jettySize=auto;html=1;startArrow=none;startFill=0;endArrow=classic;endFill=1;fontSize=16;" edge="1" parent="1" source="4Vz98ylFdLMkffaRlwxe-54" target="4Vz98ylFdLMkffaRlwxe-6">
          <mxGeometry relative="1" as="geometry">
            <mxPoint x="20" y="241.5" as="targetPoint" />
          </mxGeometry>
        </mxCell>
        <mxCell id="4Vz98ylFdLMkffaRlwxe-54" value="" style="outlineConnect=0;fontColor=#232F3E;gradientColor=none;fillColor=#232F3E;strokeColor=none;dashed=0;verticalLabelPosition=bottom;verticalAlign=top;align=center;html=1;fontSize=12;fontStyle=0;aspect=fixed;pointerEvents=1;shape=mxgraph.aws4.user;" vertex="1" parent="1">
          <mxGeometry x="-40" y="216.5" width="40" height="40" as="geometry" />
        </mxCell>
        <mxCell id="4Vz98ylFdLMkffaRlwxe-57" value="ASR" style="rounded=1;whiteSpace=wrap;html=1;fillColor=#FFB570;fontSize=16;" vertex="1" parent="1">
          <mxGeometry x="70" y="350" width="100" height="30" as="geometry" />
        </mxCell>
        <mxCell id="4Vz98ylFdLMkffaRlwxe-58" value="" style="endArrow=classic;html=1;fontSize=16;" edge="1" parent="1" target="4Vz98ylFdLMkffaRlwxe-57">
          <mxGeometry width="50" height="50" relative="1" as="geometry">
            <mxPoint x="120" y="300" as="sourcePoint" />
            <mxPoint x="150" y="280" as="targetPoint" />
          </mxGeometry>
        </mxCell>
        <mxCell id="4Vz98ylFdLMkffaRlwxe-60" value="" style="rounded=0;whiteSpace=wrap;html=1;fillColor=#f5f5f5;strokeColor=#666666;fontColor=#333333;" vertex="1" parent="1">
          <mxGeometry x="1160" width="200" height="420" as="geometry" />
        </mxCell>
        <mxCell id="4Vz98ylFdLMkffaRlwxe-61" value="" style="rounded=1;whiteSpace=wrap;html=1;fillColor=#e1d5e7;strokeColor=#9673a6;" vertex="1" parent="1">
          <mxGeometry x="1180" y="104.5" width="160" height="50" as="geometry" />
        </mxCell>
        <mxCell id="4Vz98ylFdLMkffaRlwxe-62" value="" style="rounded=1;whiteSpace=wrap;html=1;fillColor=#e1d5e7;strokeColor=#9673a6;" vertex="1" parent="1">
          <mxGeometry x="1180" y="163" width="160" height="50" as="geometry" />
        </mxCell>
        <mxCell id="4Vz98ylFdLMkffaRlwxe-63" value="" style="rounded=1;whiteSpace=wrap;html=1;fillColor=#e1d5e7;strokeColor=#9673a6;" vertex="1" parent="1">
          <mxGeometry x="1180" y="224.5" width="160" height="50" as="geometry" />
        </mxCell>
        <mxCell id="4Vz98ylFdLMkffaRlwxe-64" value="" style="rounded=1;whiteSpace=wrap;html=1;fillColor=#e1d5e7;strokeColor=#9673a6;" vertex="1" parent="1">
          <mxGeometry x="1180" y="288" width="160" height="50" as="geometry" />
        </mxCell>
        <mxCell id="4Vz98ylFdLMkffaRlwxe-65" value="" style="rounded=1;whiteSpace=wrap;html=1;fillColor=#e1d5e7;strokeColor=#9673a6;" vertex="1" parent="1">
          <mxGeometry x="1180" y="356.5" width="160" height="50" as="geometry" />
        </mxCell>
        <mxCell id="4Vz98ylFdLMkffaRlwxe-66" value="TTSA高性能计算&lt;br style=&quot;font-size: 24px;&quot;&gt;服务集群" style="text;html=1;align=center;verticalAlign=middle;resizable=0;points=[];autosize=1;fontSize=24;" vertex="1" parent="1">
          <mxGeometry x="1160" y="25" width="200" height="60" as="geometry" />
        </mxCell>
        <mxCell id="4Vz98ylFdLMkffaRlwxe-67" value="" style="rounded=1;whiteSpace=wrap;html=1;fillColor=#FFB570;" vertex="1" parent="1">
          <mxGeometry x="890" y="350" width="160" height="50" as="geometry" />
        </mxCell>
        <mxCell id="4Vz98ylFdLMkffaRlwxe-68" value="房间" style="text;html=1;align=center;verticalAlign=middle;resizable=0;points=[];autosize=1;fontSize=24;" vertex="1" parent="1">
          <mxGeometry x="940" y="25" width="60" height="30" as="geometry" />
        </mxCell>
        <mxCell id="53_673JnVG5SLd3sv-ck-2" value="" style="endArrow=classic;html=1;fontSize=16;exitX=0.004;exitY=0.407;exitDx=0;exitDy=0;entryX=1;entryY=0.5;entryDx=0;entryDy=0;exitPerimeter=0;" edge="1" parent="1" source="4Vz98ylFdLMkffaRlwxe-16" target="4Vz98ylFdLMkffaRlwxe-13">
          <mxGeometry x="-0.659" y="29" width="50" height="50" relative="1" as="geometry">
            <mxPoint x="670" y="400" as="sourcePoint" />
            <mxPoint x="720" y="350" as="targetPoint" />
            <Array as="points">
              <mxPoint x="760" y="171" />
              <mxPoint x="760" y="380" />
            </Array>
            <mxPoint x="-29" y="29" as="offset" />
          </mxGeometry>
        </mxCell>
        <mxCell id="53_673JnVG5SLd3sv-ck-4" value="verify" style="endArrow=classic;html=1;fontSize=16;" edge="1" parent="1">
          <mxGeometry width="50" height="50" relative="1" as="geometry">
            <mxPoint x="760" y="200" as="sourcePoint" />
            <mxPoint x="681" y="200" as="targetPoint" />
          </mxGeometry>
        </mxCell>
      </root>
    </mxGraphModel>
  </diagram>
  <diagram id="pBD8xxHZ80Yj11XZRZdg" name="simple">
    <mxGraphModel dx="861" dy="436" grid="1" gridSize="10" guides="1" tooltips="1" connect="1" arrows="1" fold="1" page="1" pageScale="1" pageWidth="827" pageHeight="1169" math="0" shadow="0">
      <root>
        <mxCell id="JzHeAZ-cEstTRaLk0z5c-0" />
        <mxCell id="JzHeAZ-cEstTRaLk0z5c-1" parent="JzHeAZ-cEstTRaLk0z5c-0" />
        <mxCell id="JzHeAZ-cEstTRaLk0z5c-7" value="" style="rounded=1;whiteSpace=wrap;html=1;strokeColor=#666666;fillColor=#f5f5f5;fontSize=16;fontColor=#333333;" vertex="1" parent="JzHeAZ-cEstTRaLk0z5c-1">
          <mxGeometry x="150" y="200" width="210" height="135" as="geometry" />
        </mxCell>
        <mxCell id="JzHeAZ-cEstTRaLk0z5c-2" value="高性能计算服务集群" style="rounded=1;whiteSpace=wrap;html=1;strokeColor=#82b366;fillColor=#d5e8d4;fontSize=16;" vertex="1" parent="JzHeAZ-cEstTRaLk0z5c-1">
          <mxGeometry x="159" y="210" width="170" height="40" as="geometry" />
        </mxCell>
        <mxCell id="JzHeAZ-cEstTRaLk0z5c-3" value="&lt;font style=&quot;font-size: 16px&quot;&gt;高性能渲染服务集群&lt;/font&gt;" style="rounded=1;whiteSpace=wrap;html=1;strokeColor=#82b366;fillColor=#d5e8d4;fontSize=24;" vertex="1" parent="JzHeAZ-cEstTRaLk0z5c-1">
          <mxGeometry x="159" y="270" width="170" height="40" as="geometry" />
        </mxCell>
        <mxCell id="JzHeAZ-cEstTRaLk0z5c-4" value="" style="shape=image;verticalLabelPosition=bottom;labelBackgroundColor=#ffffff;verticalAlign=top;aspect=fixed;imageAspect=0;image=https://timgsa.baidu.com/timg?image&amp;quality=80&amp;size=b9999_10000&amp;sec=1585719255448&amp;di=b3ba3cd7c0157ffcaa3e572b7d18af43&amp;imgtype=0&amp;src=http%3A%2F%2Fwww.uml.org.cn%2Fitnews%2Fimages%2F201312240802.jpg;" vertex="1" parent="JzHeAZ-cEstTRaLk0z5c-1">
          <mxGeometry x="700" y="120.00000000000001" width="260" height="170.04" as="geometry" />
        </mxCell>
        <mxCell id="JzHeAZ-cEstTRaLk0z5c-5" value="" style="rounded=1;whiteSpace=wrap;html=1;strokeColor=#666666;fillColor=#f5f5f5;fontSize=16;fontColor=#333333;" vertex="1" parent="JzHeAZ-cEstTRaLk0z5c-1">
          <mxGeometry x="150" y="30" width="440" height="60" as="geometry" />
        </mxCell>
        <mxCell id="JzHeAZ-cEstTRaLk0z5c-6" value="" style="rounded=1;whiteSpace=wrap;html=1;strokeColor=#666666;fillColor=#f5f5f5;fontSize=16;fontColor=#333333;" vertex="1" parent="JzHeAZ-cEstTRaLk0z5c-1">
          <mxGeometry x="150" y="100" width="440" height="90" as="geometry" />
        </mxCell>
        <mxCell id="uF9LIEViom9EGN5nXzZO-0" value="&lt;div style=&quot;text-align: left&quot;&gt;&lt;span&gt;cirrus&lt;/span&gt;&lt;/div&gt;&lt;div style=&quot;text-align: left&quot;&gt;&lt;span&gt;webrtc_proxy：实时视频流代理&lt;/span&gt;&lt;/div&gt;&lt;div style=&quot;text-align: left&quot;&gt;&lt;span&gt;ue4: 渲染器&lt;/span&gt;&lt;/div&gt;&lt;div style=&quot;text-align: left&quot;&gt;&lt;span&gt;ttsa_backend DLwrapper&lt;/span&gt;&lt;/div&gt;&lt;div style=&quot;text-align: left&quot;&gt;&lt;span&gt;&lt;br&gt;&lt;/span&gt;&lt;/div&gt;" style="text;html=1;align=center;verticalAlign=middle;resizable=0;points=[];autosize=1;fontSize=32;" vertex="1" parent="JzHeAZ-cEstTRaLk0z5c-1">
          <mxGeometry x="720" y="370" width="460" height="190" as="geometry" />
        </mxCell>
        <mxCell id="uF9LIEViom9EGN5nXzZO-1" value="app服务器" style="rounded=1;whiteSpace=wrap;html=1;strokeColor=#B3B3B3;fillColor=#B3B3B3;gradientColor=none;fontSize=16;" vertex="1" parent="JzHeAZ-cEstTRaLk0z5c-1">
          <mxGeometry x="170" y="120" width="110" height="30" as="geometry" />
        </mxCell>
        <mxCell id="uF9LIEViom9EGN5nXzZO-2" value="网关服务器" style="rounded=1;whiteSpace=wrap;html=1;strokeColor=#B3B3B3;fillColor=#B3B3B3;gradientColor=none;fontSize=16;" vertex="1" parent="JzHeAZ-cEstTRaLk0z5c-1">
          <mxGeometry x="304" y="120" width="110" height="30" as="geometry" />
        </mxCell>
        <mxCell id="uF9LIEViom9EGN5nXzZO-3" value="状态服务器" style="rounded=1;whiteSpace=wrap;html=1;strokeColor=#B3B3B3;fillColor=#B3B3B3;gradientColor=none;fontSize=16;" vertex="1" parent="JzHeAZ-cEstTRaLk0z5c-1">
          <mxGeometry x="450" y="120" width="110" height="30" as="geometry" />
        </mxCell>
        <mxCell id="uF9LIEViom9EGN5nXzZO-4" value="管理后台" style="rounded=1;whiteSpace=wrap;html=1;strokeColor=#B3B3B3;fillColor=#B3B3B3;gradientColor=none;fontSize=16;" vertex="1" parent="JzHeAZ-cEstTRaLk0z5c-1">
          <mxGeometry x="380" y="45" width="110" height="30" as="geometry" />
        </mxCell>
        <mxCell id="uF9LIEViom9EGN5nXzZO-5" value="APP客户端" style="rounded=1;whiteSpace=wrap;html=1;strokeColor=#B3B3B3;fillColor=#B3B3B3;gradientColor=none;fontSize=16;" vertex="1" parent="JzHeAZ-cEstTRaLk0z5c-1">
          <mxGeometry x="240" y="45" width="110" height="30" as="geometry" />
        </mxCell>
        <mxCell id="uF9LIEViom9EGN5nXzZO-8" value="" style="rounded=1;whiteSpace=wrap;html=1;strokeColor=#666666;fillColor=#f5f5f5;fontSize=16;fontColor=#333333;" vertex="1" parent="JzHeAZ-cEstTRaLk0z5c-1">
          <mxGeometry x="380" y="200" width="210" height="135" as="geometry" />
        </mxCell>
        <mxCell id="uF9LIEViom9EGN5nXzZO-10" value="高可用存储数据库" style="rounded=1;whiteSpace=wrap;html=1;strokeColor=#6c8ebf;fillColor=#dae8fc;fontSize=16;" vertex="1" parent="JzHeAZ-cEstTRaLk0z5c-1">
          <mxGeometry x="390" y="220" width="170" height="40" as="geometry" />
        </mxCell>
      </root>
    </mxGraphModel>
  </diagram>
  <diagram id="RWFLMk0-GOjGBtrBLphw" name="offline">
    <mxGraphModel dx="2858" dy="1019" grid="1" gridSize="10" guides="1" tooltips="1" connect="1" arrows="1" fold="1" page="1" pageScale="1" pageWidth="827" pageHeight="1169" math="0" shadow="0">
      <root>
        <mxCell id="qOZ7ukBPNNNySwporJ5e-0" />
        <mxCell id="qOZ7ukBPNNNySwporJ5e-1" value="main" parent="qOZ7ukBPNNNySwporJ5e-0" />
        <mxCell id="qOZ7ukBPNNNySwporJ5e-2" value="客户端" style="outlineConnect=0;gradientColor=none;fontColor=#545B64;strokeColor=none;fillColor=#B3B3B3;dashed=0;verticalLabelPosition=bottom;verticalAlign=top;align=center;html=1;fontSize=12;fontStyle=0;aspect=fixed;shape=mxgraph.aws4.illustration_devices;pointerEvents=1" vertex="1" parent="qOZ7ukBPNNNySwporJ5e-1">
          <mxGeometry x="80" y="200" width="100" height="73" as="geometry" />
        </mxCell>
        <mxCell id="qOZ7ukBPNNNySwporJ5e-3" value="HTTP请求" style="edgeStyle=orthogonalEdgeStyle;rounded=0;orthogonalLoop=1;jettySize=auto;html=1;startArrow=classic;startFill=1;" edge="1" parent="qOZ7ukBPNNNySwporJ5e-1" target="qOZ7ukBPNNNySwporJ5e-8">
          <mxGeometry x="-0.0134" y="15" relative="1" as="geometry">
            <mxPoint x="431" y="155" as="sourcePoint" />
            <mxPoint as="offset" />
          </mxGeometry>
        </mxCell>
        <mxCell id="qOZ7ukBPNNNySwporJ5e-4" value="网关服务器" style="rounded=1;whiteSpace=wrap;html=1;fillColor=#d5e8d4;strokeColor=#82b366;fontStyle=1;fontSize=16;" vertex="1" parent="qOZ7ukBPNNNySwporJ5e-1">
          <mxGeometry x="320" width="110" height="320" as="geometry" />
        </mxCell>
        <mxCell id="qOZ7ukBPNNNySwporJ5e-5" value="数字人后台系统" style="rounded=1;whiteSpace=wrap;html=1;fillColor=#f5f5f5;strokeColor=#666666;verticalAlign=top;fontStyle=1;fontSize=16;fontColor=#333333;" vertex="1" parent="qOZ7ukBPNNNySwporJ5e-1">
          <mxGeometry x="90" width="140" height="100" as="geometry" />
        </mxCell>
        <mxCell id="qOZ7ukBPNNNySwporJ5e-6" value="APP服务器" style="rounded=1;whiteSpace=wrap;html=1;fillColor=#d5e8d4;strokeColor=#82b366;fontStyle=1;fontSize=16;" vertex="1" parent="qOZ7ukBPNNNySwporJ5e-1">
          <mxGeometry x="320" y="350" width="110" height="60" as="geometry" />
        </mxCell>
        <mxCell id="qOZ7ukBPNNNySwporJ5e-7" value="" style="edgeStyle=orthogonalEdgeStyle;rounded=0;orthogonalLoop=1;jettySize=auto;html=1;startArrow=none;startFill=0;endArrow=classic;endFill=1;" edge="1" parent="qOZ7ukBPNNNySwporJ5e-1">
          <mxGeometry relative="1" as="geometry">
            <mxPoint x="670" y="60" as="sourcePoint" />
            <mxPoint x="850" y="60" as="targetPoint" />
          </mxGeometry>
        </mxCell>
        <mxCell id="qOZ7ukBPNNNySwporJ5e-8" value="状态中心服务器" style="rounded=1;whiteSpace=wrap;html=1;fillColor=#dae8fc;strokeColor=#6c8ebf;fontStyle=1;fontSize=16;" vertex="1" parent="qOZ7ukBPNNNySwporJ5e-1">
          <mxGeometry x="530" width="140" height="310" as="geometry" />
        </mxCell>
        <mxCell id="qOZ7ukBPNNNySwporJ5e-9" style="edgeStyle=orthogonalEdgeStyle;rounded=0;orthogonalLoop=1;jettySize=auto;html=1;exitX=1;exitY=0.5;exitDx=0;exitDy=0;entryX=0;entryY=0.5;entryDx=0;entryDy=0;startArrow=none;startFill=0;endArrow=classic;endFill=1;fontSize=24;" edge="1" parent="qOZ7ukBPNNNySwporJ5e-1" source="qOZ7ukBPNNNySwporJ5e-10" target="qOZ7ukBPNNNySwporJ5e-28">
          <mxGeometry relative="1" as="geometry" />
        </mxCell>
        <mxCell id="qOZ7ukBPNNNySwporJ5e-10" value="" style="rounded=1;whiteSpace=wrap;html=1;fillColor=#f5f5f5;strokeColor=#666666;fontColor=#333333;" vertex="1" parent="qOZ7ukBPNNNySwporJ5e-1">
          <mxGeometry x="850" width="130" height="420" as="geometry" />
        </mxCell>
        <mxCell id="qOZ7ukBPNNNySwporJ5e-11" value="HTTP请求" style="endArrow=classic;html=1;" edge="1" parent="qOZ7ukBPNNNySwporJ5e-1">
          <mxGeometry width="50" height="50" relative="1" as="geometry">
            <mxPoint x="190" y="211" as="sourcePoint" />
            <mxPoint x="320" y="211" as="targetPoint" />
          </mxGeometry>
        </mxCell>
        <mxCell id="qOZ7ukBPNNNySwporJ5e-12" value="主" style="outlineConnect=0;fontColor=#232F3E;gradientColor=none;fillColor=#808080;strokeColor=none;dashed=0;verticalLabelPosition=bottom;verticalAlign=top;align=center;html=1;fontSize=12;fontStyle=0;aspect=fixed;pointerEvents=1;shape=mxgraph.aws4.rds_mysql_instance;" vertex="1" parent="qOZ7ukBPNNNySwporJ5e-1">
          <mxGeometry x="570" y="200" width="40" height="40" as="geometry" />
        </mxCell>
        <mxCell id="qOZ7ukBPNNNySwporJ5e-13" value="从" style="outlineConnect=0;fontColor=#232F3E;gradientColor=none;fillColor=#808080;strokeColor=none;dashed=0;verticalLabelPosition=bottom;verticalAlign=top;align=center;html=1;fontSize=12;fontStyle=0;aspect=fixed;pointerEvents=1;shape=mxgraph.aws4.rds_mysql_instance;" vertex="1" parent="qOZ7ukBPNNNySwporJ5e-1">
          <mxGeometry x="610" y="200" width="40" height="40" as="geometry" />
        </mxCell>
        <mxCell id="qOZ7ukBPNNNySwporJ5e-14" value="主" style="outlineConnect=0;fontColor=#232F3E;gradientColor=none;fillColor=#808080;strokeColor=none;dashed=0;verticalLabelPosition=bottom;verticalAlign=top;align=center;html=1;fontSize=12;fontStyle=0;aspect=fixed;pointerEvents=1;shape=mxgraph.aws4.rds_mysql_instance;" vertex="1" parent="qOZ7ukBPNNNySwporJ5e-1">
          <mxGeometry x="140" y="40" width="40" height="40" as="geometry" />
        </mxCell>
        <mxCell id="qOZ7ukBPNNNySwporJ5e-15" value="从" style="outlineConnect=0;fontColor=#232F3E;gradientColor=none;fillColor=#808080;strokeColor=none;dashed=0;verticalLabelPosition=bottom;verticalAlign=top;align=center;html=1;fontSize=12;fontStyle=0;aspect=fixed;pointerEvents=1;shape=mxgraph.aws4.rds_mysql_instance;" vertex="1" parent="qOZ7ukBPNNNySwporJ5e-1">
          <mxGeometry x="180" y="40" width="40" height="40" as="geometry" />
        </mxCell>
        <mxCell id="qOZ7ukBPNNNySwporJ5e-16" value="HTTP请求" style="edgeStyle=orthogonalEdgeStyle;rounded=0;orthogonalLoop=1;jettySize=auto;html=1;startArrow=classic;startFill=1;entryX=-0.021;entryY=0.175;entryDx=0;entryDy=0;entryPerimeter=0;" edge="1" parent="qOZ7ukBPNNNySwporJ5e-1" target="qOZ7ukBPNNNySwporJ5e-4">
          <mxGeometry x="0.0364" y="16" relative="1" as="geometry">
            <mxPoint x="230" y="56" as="sourcePoint" />
            <mxPoint x="340" y="39.999999999999886" as="targetPoint" />
            <mxPoint as="offset" />
          </mxGeometry>
        </mxCell>
        <mxCell id="qOZ7ukBPNNNySwporJ5e-17" value="" style="edgeStyle=orthogonalEdgeStyle;rounded=0;orthogonalLoop=1;jettySize=auto;html=1;startArrow=none;startFill=0;endArrow=classic;endFill=1;" edge="1" parent="qOZ7ukBPNNNySwporJ5e-1">
          <mxGeometry relative="1" as="geometry">
            <mxPoint x="669" y="95" as="sourcePoint" />
            <mxPoint x="850" y="95" as="targetPoint" />
          </mxGeometry>
        </mxCell>
        <mxCell id="qOZ7ukBPNNNySwporJ5e-18" value="" style="edgeStyle=orthogonalEdgeStyle;rounded=0;orthogonalLoop=1;jettySize=auto;html=1;entryX=0.01;entryY=0.321;entryDx=0;entryDy=0;entryPerimeter=0;startArrow=none;startFill=0;endArrow=classic;endFill=1;exitX=0.998;exitY=0.435;exitDx=0;exitDy=0;exitPerimeter=0;" edge="1" parent="qOZ7ukBPNNNySwporJ5e-1" source="qOZ7ukBPNNNySwporJ5e-8" target="qOZ7ukBPNNNySwporJ5e-10">
          <mxGeometry relative="1" as="geometry">
            <mxPoint x="669.52" y="76.40500000000003" as="sourcePoint" />
            <mxPoint x="859.6000000000001" y="75.51999999999998" as="targetPoint" />
          </mxGeometry>
        </mxCell>
        <mxCell id="qOZ7ukBPNNNySwporJ5e-19" value="websocket" style="endArrow=classic;html=1;startArrow=classic;startFill=1;" edge="1" parent="qOZ7ukBPNNNySwporJ5e-1">
          <mxGeometry x="0.0684" width="50" height="50" relative="1" as="geometry">
            <mxPoint x="190" y="250" as="sourcePoint" />
            <mxPoint x="320" y="380" as="targetPoint" />
            <Array as="points">
              <mxPoint x="230" y="250" />
              <mxPoint x="230" y="380" />
            </Array>
            <mxPoint as="offset" />
          </mxGeometry>
        </mxCell>
        <mxCell id="qOZ7ukBPNNNySwporJ5e-24" value="声音" style="edgeStyle=orthogonalEdgeStyle;rounded=0;orthogonalLoop=1;jettySize=auto;html=1;startArrow=none;startFill=0;endArrow=classic;endFill=1;fontSize=16;" edge="1" parent="qOZ7ukBPNNNySwporJ5e-1" source="qOZ7ukBPNNNySwporJ5e-25" target="qOZ7ukBPNNNySwporJ5e-2">
          <mxGeometry relative="1" as="geometry">
            <mxPoint x="20" y="241.5" as="targetPoint" />
          </mxGeometry>
        </mxCell>
        <mxCell id="qOZ7ukBPNNNySwporJ5e-25" value="" style="outlineConnect=0;fontColor=#232F3E;gradientColor=none;fillColor=#232F3E;strokeColor=none;dashed=0;verticalLabelPosition=bottom;verticalAlign=top;align=center;html=1;fontSize=12;fontStyle=0;aspect=fixed;pointerEvents=1;shape=mxgraph.aws4.user;" vertex="1" parent="qOZ7ukBPNNNySwporJ5e-1">
          <mxGeometry x="-40" y="216.5" width="40" height="40" as="geometry" />
        </mxCell>
        <mxCell id="qOZ7ukBPNNNySwporJ5e-26" value="语音识别" style="rounded=1;whiteSpace=wrap;html=1;fillColor=#FFB570;fontSize=16;" vertex="1" parent="qOZ7ukBPNNNySwporJ5e-1">
          <mxGeometry x="60" y="350" width="120" height="60" as="geometry" />
        </mxCell>
        <mxCell id="qOZ7ukBPNNNySwporJ5e-27" value="" style="endArrow=classic;html=1;fontSize=16;" edge="1" parent="qOZ7ukBPNNNySwporJ5e-1" target="qOZ7ukBPNNNySwporJ5e-26">
          <mxGeometry width="50" height="50" relative="1" as="geometry">
            <mxPoint x="120" y="300" as="sourcePoint" />
            <mxPoint x="150" y="280" as="targetPoint" />
          </mxGeometry>
        </mxCell>
        <mxCell id="qOZ7ukBPNNNySwporJ5e-36" value="房间" style="text;html=1;align=center;verticalAlign=middle;resizable=0;points=[];autosize=1;fontSize=16;fontStyle=1" vertex="1" parent="qOZ7ukBPNNNySwporJ5e-1">
          <mxGeometry x="885" y="20" width="50" height="20" as="geometry" />
        </mxCell>
        <mxCell id="qOZ7ukBPNNNySwporJ5e-37" value="" style="endArrow=classic;html=1;fontSize=16;exitX=0.008;exitY=0.908;exitDx=0;exitDy=0;entryX=1;entryY=0.5;entryDx=0;entryDy=0;exitPerimeter=0;" edge="1" parent="qOZ7ukBPNNNySwporJ5e-1" source="qOZ7ukBPNNNySwporJ5e-10" target="qOZ7ukBPNNNySwporJ5e-6">
          <mxGeometry x="-0.659" y="29" width="50" height="50" relative="1" as="geometry">
            <mxPoint x="670" y="400" as="sourcePoint" />
            <mxPoint x="720" y="350" as="targetPoint" />
            <Array as="points">
              <mxPoint x="760" y="380" />
            </Array>
            <mxPoint x="-29" y="29" as="offset" />
          </mxGeometry>
        </mxCell>
        <mxCell id="qOZ7ukBPNNNySwporJ5e-38" value="用户验证" style="endArrow=classic;html=1;fontSize=16;entryX=0.5;entryY=1;entryDx=0;entryDy=0;" edge="1" parent="qOZ7ukBPNNNySwporJ5e-1" target="qOZ7ukBPNNNySwporJ5e-8">
          <mxGeometry x="0.0101" width="50" height="50" relative="1" as="geometry">
            <mxPoint x="600" y="380" as="sourcePoint" />
            <mxPoint x="661" y="260" as="targetPoint" />
            <mxPoint as="offset" />
          </mxGeometry>
        </mxCell>
        <mxCell id="8BITRThTWmgqPgNDoWik-179" value="" style="group" vertex="1" connectable="0" parent="qOZ7ukBPNNNySwporJ5e-1">
          <mxGeometry x="1041" width="200" height="420" as="geometry" />
        </mxCell>
        <mxCell id="qOZ7ukBPNNNySwporJ5e-28" value="" style="rounded=1;whiteSpace=wrap;html=1;fillColor=#f5f5f5;strokeColor=#666666;fontColor=#333333;" vertex="1" parent="8BITRThTWmgqPgNDoWik-179">
          <mxGeometry width="200" height="420" as="geometry" />
        </mxCell>
        <mxCell id="qOZ7ukBPNNNySwporJ5e-29" value="" style="rounded=1;whiteSpace=wrap;html=1;fillColor=#e1d5e7;strokeColor=#9673a6;" vertex="1" parent="8BITRThTWmgqPgNDoWik-179">
          <mxGeometry x="20" y="104.5" width="160" height="50" as="geometry" />
        </mxCell>
        <mxCell id="qOZ7ukBPNNNySwporJ5e-30" value="" style="rounded=1;whiteSpace=wrap;html=1;fillColor=#e1d5e7;strokeColor=#9673a6;" vertex="1" parent="8BITRThTWmgqPgNDoWik-179">
          <mxGeometry x="20" y="163" width="160" height="50" as="geometry" />
        </mxCell>
        <mxCell id="qOZ7ukBPNNNySwporJ5e-31" value="" style="rounded=1;whiteSpace=wrap;html=1;fillColor=#e1d5e7;strokeColor=#9673a6;" vertex="1" parent="8BITRThTWmgqPgNDoWik-179">
          <mxGeometry x="20" y="224.5" width="160" height="50" as="geometry" />
        </mxCell>
        <mxCell id="qOZ7ukBPNNNySwporJ5e-32" value="" style="rounded=1;whiteSpace=wrap;html=1;fillColor=#e1d5e7;strokeColor=#9673a6;" vertex="1" parent="8BITRThTWmgqPgNDoWik-179">
          <mxGeometry x="20" y="288" width="160" height="50" as="geometry" />
        </mxCell>
        <mxCell id="qOZ7ukBPNNNySwporJ5e-33" value="" style="rounded=1;whiteSpace=wrap;html=1;fillColor=#e1d5e7;strokeColor=#9673a6;" vertex="1" parent="8BITRThTWmgqPgNDoWik-179">
          <mxGeometry x="20" y="356.5" width="160" height="50" as="geometry" />
        </mxCell>
        <mxCell id="qOZ7ukBPNNNySwporJ5e-34" value="TTSA高性能计算&lt;br style=&quot;font-size: 16px;&quot;&gt;服务集群" style="text;html=1;align=center;verticalAlign=middle;resizable=0;points=[];autosize=1;fontSize=16;fontStyle=1" vertex="1" parent="8BITRThTWmgqPgNDoWik-179">
          <mxGeometry x="20" y="20" width="140" height="40" as="geometry" />
        </mxCell>
        <mxCell id="8BITRThTWmgqPgNDoWik-0" value="dev" parent="qOZ7ukBPNNNySwporJ5e-0" />
        <mxCell id="8BITRThTWmgqPgNDoWik-116" value="get_status TTSA" style="text;html=1;fontSize=12;fontColor=#000000;" vertex="1" parent="8BITRThTWmgqPgNDoWik-0">
          <mxGeometry x="710" y="31" width="140" height="30" as="geometry" />
        </mxCell>
        <mxCell id="8BITRThTWmgqPgNDoWik-118" value="get_heartbeat UE4" style="text;html=1;fontSize=12;fontColor=#000000;" vertex="1" parent="8BITRThTWmgqPgNDoWik-0">
          <mxGeometry x="710" y="66" width="160" height="30" as="geometry" />
        </mxCell>
        <mxCell id="8BITRThTWmgqPgNDoWik-119" value="get_status circus" style="text;html=1;fontSize=12;fontColor=#000000;" vertex="1" parent="8BITRThTWmgqPgNDoWik-0">
          <mxGeometry x="710" y="100" width="150" height="30" as="geometry" />
        </mxCell>
        <mxCell id="8BITRThTWmgqPgNDoWik-1" value="Untitled Layer" parent="qOZ7ukBPNNNySwporJ5e-0" />
        <mxCell id="8BITRThTWmgqPgNDoWik-2" value="心跳检测" style="text;html=1;strokeColor=none;fillColor=none;align=center;verticalAlign=middle;whiteSpace=wrap;rounded=0;fontSize=16;fontStyle=1" vertex="1" parent="8BITRThTWmgqPgNDoWik-1">
          <mxGeometry x="720" y="10" width="80" height="20" as="geometry" />
        </mxCell>
        <mxCell id="8BITRThTWmgqPgNDoWik-120" value="" style="rounded=1;whiteSpace=wrap;html=1;strokeColor=none;fillColor=#f8cecc;fontSize=16;opacity=60;" vertex="1" parent="8BITRThTWmgqPgNDoWik-1">
          <mxGeometry x="700" width="120" height="150" as="geometry" />
        </mxCell>
        <mxCell id="8BITRThTWmgqPgNDoWik-148" value="" style="group" vertex="1" connectable="0" parent="8BITRThTWmgqPgNDoWik-1">
          <mxGeometry x="710" y="490" width="520" height="240" as="geometry" />
        </mxCell>
        <mxCell id="8BITRThTWmgqPgNDoWik-126" value="" style="rounded=1;whiteSpace=wrap;html=1;fillColor=#FFB570;fontSize=16;" vertex="1" parent="8BITRThTWmgqPgNDoWik-148">
          <mxGeometry x="20" width="500" height="240" as="geometry" />
        </mxCell>
        <mxCell id="8BITRThTWmgqPgNDoWik-139" style="edgeStyle=orthogonalEdgeStyle;orthogonalLoop=1;jettySize=auto;html=1;exitX=0;exitY=0.242;exitDx=0;exitDy=0;startArrow=none;startFill=0;endArrow=oval;endFill=0;fontSize=16;fontColor=#000000;exitPerimeter=0;curved=1;" edge="1" parent="8BITRThTWmgqPgNDoWik-148" source="8BITRThTWmgqPgNDoWik-121">
          <mxGeometry relative="1" as="geometry">
            <mxPoint y="65" as="targetPoint" />
          </mxGeometry>
        </mxCell>
        <mxCell id="8BITRThTWmgqPgNDoWik-121" value="cirrus" style="rounded=1;whiteSpace=wrap;html=1;strokeColor=#666666;fillColor=#f5f5f5;fontSize=16;fontColor=#333333;" vertex="1" parent="8BITRThTWmgqPgNDoWik-148">
          <mxGeometry x="40" y="20" width="83" height="186.25" as="geometry" />
        </mxCell>
        <mxCell id="8BITRThTWmgqPgNDoWik-123" value="UE4" style="rounded=1;whiteSpace=wrap;html=1;strokeColor=#666666;fillColor=#f5f5f5;fontSize=16;fontColor=#333333;" vertex="1" parent="8BITRThTWmgqPgNDoWik-148">
          <mxGeometry x="280" y="22.5" width="110" height="60" as="geometry" />
        </mxCell>
        <mxCell id="8BITRThTWmgqPgNDoWik-130" style="edgeStyle=orthogonalEdgeStyle;rounded=0;orthogonalLoop=1;jettySize=auto;html=1;exitX=0.5;exitY=0;exitDx=0;exitDy=0;entryX=0.5;entryY=1;entryDx=0;entryDy=0;startArrow=none;startFill=0;endArrow=classic;endFill=1;fontSize=16;fontColor=#000000;" edge="1" parent="8BITRThTWmgqPgNDoWik-148" source="8BITRThTWmgqPgNDoWik-124" target="8BITRThTWmgqPgNDoWik-123">
          <mxGeometry relative="1" as="geometry" />
        </mxCell>
        <mxCell id="8BITRThTWmgqPgNDoWik-124" value="ttsa_backend" style="rounded=1;whiteSpace=wrap;html=1;strokeColor=#666666;fillColor=#f5f5f5;fontSize=16;fontColor=#333333;" vertex="1" parent="8BITRThTWmgqPgNDoWik-148">
          <mxGeometry x="280" y="140" width="110" height="70" as="geometry" />
        </mxCell>
        <mxCell id="8BITRThTWmgqPgNDoWik-125" value="TTSA" style="rounded=1;whiteSpace=wrap;html=1;strokeColor=#666666;fillColor=#f5f5f5;fontSize=16;fontColor=#333333;" vertex="1" parent="8BITRThTWmgqPgNDoWik-148">
          <mxGeometry x="420" y="20" width="80" height="190" as="geometry" />
        </mxCell>
        <mxCell id="8BITRThTWmgqPgNDoWik-127" value="webrtc_proxy" style="rounded=1;whiteSpace=wrap;html=1;strokeColor=#666666;fillColor=#f5f5f5;fontSize=16;fontColor=#333333;" vertex="1" parent="8BITRThTWmgqPgNDoWik-148">
          <mxGeometry x="150" y="22.5" width="110" height="67.5" as="geometry" />
        </mxCell>
        <mxCell id="8BITRThTWmgqPgNDoWik-137" value="" style="endArrow=classic;html=1;fontSize=16;fontColor=#000000;exitX=1.01;exitY=0.815;exitDx=0;exitDy=0;entryX=0.013;entryY=0.468;entryDx=0;entryDy=0;entryPerimeter=0;exitPerimeter=0;" edge="1" parent="8BITRThTWmgqPgNDoWik-148" source="8BITRThTWmgqPgNDoWik-121" target="8BITRThTWmgqPgNDoWik-124">
          <mxGeometry width="50" height="50" relative="1" as="geometry">
            <mxPoint x="180" y="190" as="sourcePoint" />
            <mxPoint x="230" y="140" as="targetPoint" />
          </mxGeometry>
        </mxCell>
        <mxCell id="8BITRThTWmgqPgNDoWik-138" value="" style="endArrow=classic;html=1;fontSize=16;fontColor=#000000;exitX=0.999;exitY=0.219;exitDx=0;exitDy=0;entryX=0;entryY=0.574;entryDx=0;entryDy=0;entryPerimeter=0;exitPerimeter=0;" edge="1" parent="8BITRThTWmgqPgNDoWik-148" source="8BITRThTWmgqPgNDoWik-121" target="8BITRThTWmgqPgNDoWik-127">
          <mxGeometry width="50" height="50" relative="1" as="geometry">
            <mxPoint x="140" y="130" as="sourcePoint" />
            <mxPoint x="190" y="80" as="targetPoint" />
          </mxGeometry>
        </mxCell>
        <mxCell id="8BITRThTWmgqPgNDoWik-140" value="" style="endArrow=classic;html=1;fontSize=16;fontColor=#000000;entryX=0.016;entryY=0.561;entryDx=0;entryDy=0;entryPerimeter=0;" edge="1" parent="8BITRThTWmgqPgNDoWik-148" source="8BITRThTWmgqPgNDoWik-127" target="8BITRThTWmgqPgNDoWik-123">
          <mxGeometry width="50" height="50" relative="1" as="geometry">
            <mxPoint x="240" y="106.25" as="sourcePoint" />
            <mxPoint x="280" y="56" as="targetPoint" />
          </mxGeometry>
        </mxCell>
        <mxCell id="8BITRThTWmgqPgNDoWik-142" value="xml" style="text;html=1;align=center;verticalAlign=middle;resizable=0;points=[];autosize=1;fontSize=12;fontColor=#000000;" vertex="1" parent="8BITRThTWmgqPgNDoWik-148">
          <mxGeometry x="190" y="150" width="30" height="20" as="geometry" />
        </mxCell>
        <mxCell id="8BITRThTWmgqPgNDoWik-143" value="ani_ctrl&lt;br style=&quot;font-size: 10px;&quot;&gt;audio" style="text;html=1;align=center;verticalAlign=middle;resizable=0;points=[];autosize=1;fontSize=10;fontColor=#000000;" vertex="1" parent="8BITRThTWmgqPgNDoWik-148">
          <mxGeometry x="330" y="90" width="50" height="30" as="geometry" />
        </mxCell>
        <mxCell id="8BITRThTWmgqPgNDoWik-145" value="" style="endArrow=classic;html=1;fontSize=12;fontColor=#000000;" edge="1" parent="8BITRThTWmgqPgNDoWik-148" source="8BITRThTWmgqPgNDoWik-124">
          <mxGeometry width="50" height="50" relative="1" as="geometry">
            <mxPoint x="390" y="225" as="sourcePoint" />
            <mxPoint x="420" y="175" as="targetPoint" />
          </mxGeometry>
        </mxCell>
        <mxCell id="8BITRThTWmgqPgNDoWik-164" value="" style="group" vertex="1" connectable="0" parent="8BITRThTWmgqPgNDoWik-1">
          <mxGeometry x="860" y="60" width="113.46153846153845" height="67.5" as="geometry" />
        </mxCell>
        <mxCell id="8BITRThTWmgqPgNDoWik-165" value="" style="rounded=1;whiteSpace=wrap;html=1;fillColor=#FFB570;fontSize=16;" vertex="1" parent="8BITRThTWmgqPgNDoWik-164">
          <mxGeometry x="3.8461538461538463" width="96.15384615384617" height="60" as="geometry" />
        </mxCell>
        <mxCell id="8BITRThTWmgqPgNDoWik-166" style="edgeStyle=orthogonalEdgeStyle;orthogonalLoop=1;jettySize=auto;html=1;exitX=0;exitY=0.242;exitDx=0;exitDy=0;startArrow=none;startFill=0;endArrow=oval;endFill=0;fontSize=16;fontColor=#000000;exitPerimeter=0;curved=1;" edge="1" parent="8BITRThTWmgqPgNDoWik-164" source="8BITRThTWmgqPgNDoWik-167">
          <mxGeometry relative="1" as="geometry">
            <mxPoint y="16.249999999999996" as="targetPoint" />
          </mxGeometry>
        </mxCell>
        <mxCell id="8BITRThTWmgqPgNDoWik-167" value="" style="rounded=1;whiteSpace=wrap;html=1;strokeColor=#666666;fillColor=#f5f5f5;fontSize=16;fontColor=#333333;" vertex="1" parent="8BITRThTWmgqPgNDoWik-164">
          <mxGeometry x="7.6923076923076925" y="4.999999999999999" width="15.96153846153846" height="46.562499999999986" as="geometry" />
        </mxCell>
        <mxCell id="8BITRThTWmgqPgNDoWik-168" value="" style="rounded=1;whiteSpace=wrap;html=1;strokeColor=#666666;fillColor=#f5f5f5;fontSize=16;fontColor=#333333;" vertex="1" parent="8BITRThTWmgqPgNDoWik-164">
          <mxGeometry x="53.84615384615385" y="5.625" width="21.153846153846153" height="15" as="geometry" />
        </mxCell>
        <mxCell id="8BITRThTWmgqPgNDoWik-169" style="edgeStyle=orthogonalEdgeStyle;rounded=0;orthogonalLoop=1;jettySize=auto;html=1;exitX=0.5;exitY=0;exitDx=0;exitDy=0;entryX=0.5;entryY=1;entryDx=0;entryDy=0;startArrow=none;startFill=0;endArrow=classic;endFill=1;fontSize=16;fontColor=#000000;endSize=1;" edge="1" parent="8BITRThTWmgqPgNDoWik-164" source="8BITRThTWmgqPgNDoWik-170" target="8BITRThTWmgqPgNDoWik-168">
          <mxGeometry relative="1" as="geometry" />
        </mxCell>
        <mxCell id="8BITRThTWmgqPgNDoWik-170" value="" style="rounded=1;whiteSpace=wrap;html=1;strokeColor=#666666;fillColor=#f5f5f5;fontSize=16;fontColor=#333333;" vertex="1" parent="8BITRThTWmgqPgNDoWik-164">
          <mxGeometry x="53.84615384615385" y="34.999999999999986" width="21.153846153846153" height="17.499999999999993" as="geometry" />
        </mxCell>
        <mxCell id="8BITRThTWmgqPgNDoWik-171" value="" style="rounded=1;whiteSpace=wrap;html=1;strokeColor=#666666;fillColor=#f5f5f5;fontSize=16;fontColor=#333333;" vertex="1" parent="8BITRThTWmgqPgNDoWik-164">
          <mxGeometry x="80.76923076923077" y="4.999999999999999" width="15.384615384615385" height="47.499999999999986" as="geometry" />
        </mxCell>
        <mxCell id="8BITRThTWmgqPgNDoWik-172" value="" style="rounded=1;whiteSpace=wrap;html=1;strokeColor=#666666;fillColor=#f5f5f5;fontSize=16;fontColor=#333333;" vertex="1" parent="8BITRThTWmgqPgNDoWik-164">
          <mxGeometry x="28.846153846153854" y="5.625" width="21.153846153846153" height="16.875" as="geometry" />
        </mxCell>
        <mxCell id="8BITRThTWmgqPgNDoWik-173" value="" style="endArrow=classic;html=1;fontSize=16;fontColor=#000000;exitX=1.01;exitY=0.815;exitDx=0;exitDy=0;entryX=0.013;entryY=0.468;entryDx=0;entryDy=0;entryPerimeter=0;exitPerimeter=0;startSize=1;endSize=1;" edge="1" parent="8BITRThTWmgqPgNDoWik-164" source="8BITRThTWmgqPgNDoWik-167" target="8BITRThTWmgqPgNDoWik-170">
          <mxGeometry width="50" height="50" relative="1" as="geometry">
            <mxPoint x="34.61538461538462" y="47.499999999999986" as="sourcePoint" />
            <mxPoint x="44.23076923076924" y="34.999999999999986" as="targetPoint" />
          </mxGeometry>
        </mxCell>
        <mxCell id="8BITRThTWmgqPgNDoWik-174" value="" style="endArrow=classic;html=1;fontSize=16;fontColor=#000000;exitX=0.999;exitY=0.219;exitDx=0;exitDy=0;entryX=0;entryY=0.574;entryDx=0;entryDy=0;entryPerimeter=0;exitPerimeter=0;endSize=1;" edge="1" parent="8BITRThTWmgqPgNDoWik-164" source="8BITRThTWmgqPgNDoWik-167" target="8BITRThTWmgqPgNDoWik-172">
          <mxGeometry width="50" height="50" relative="1" as="geometry">
            <mxPoint x="26.923076923076923" y="32.49999999999999" as="sourcePoint" />
            <mxPoint x="36.53846153846154" y="19.999999999999996" as="targetPoint" />
          </mxGeometry>
        </mxCell>
        <mxCell id="8BITRThTWmgqPgNDoWik-175" value="" style="endArrow=classic;html=1;fontSize=16;fontColor=#000000;entryX=0.016;entryY=0.561;entryDx=0;entryDy=0;entryPerimeter=0;endSize=1;" edge="1" parent="8BITRThTWmgqPgNDoWik-164" source="8BITRThTWmgqPgNDoWik-172" target="8BITRThTWmgqPgNDoWik-168">
          <mxGeometry width="50" height="50" relative="1" as="geometry">
            <mxPoint x="46.15384615384617" y="26.562499999999993" as="sourcePoint" />
            <mxPoint x="53.84615384615385" y="13.999999999999998" as="targetPoint" />
          </mxGeometry>
        </mxCell>
        <mxCell id="8BITRThTWmgqPgNDoWik-178" value="" style="endArrow=classic;html=1;fontSize=12;fontColor=#000000;endSize=1;" edge="1" parent="8BITRThTWmgqPgNDoWik-164" source="8BITRThTWmgqPgNDoWik-170">
          <mxGeometry width="50" height="50" relative="1" as="geometry">
            <mxPoint x="75" y="56.25" as="sourcePoint" />
            <mxPoint x="80.76923076923077" y="43.74999999999999" as="targetPoint" />
          </mxGeometry>
        </mxCell>
        <mxCell id="8BITRThTWmgqPgNDoWik-181" value="" style="group" vertex="1" connectable="0" parent="8BITRThTWmgqPgNDoWik-1">
          <mxGeometry x="860" y="130" width="113.46153846153845" height="67.5" as="geometry" />
        </mxCell>
        <mxCell id="8BITRThTWmgqPgNDoWik-182" value="" style="rounded=1;whiteSpace=wrap;html=1;fillColor=#FFB570;fontSize=16;" vertex="1" parent="8BITRThTWmgqPgNDoWik-181">
          <mxGeometry x="3.8461538461538463" width="96.15384615384617" height="60" as="geometry" />
        </mxCell>
        <mxCell id="8BITRThTWmgqPgNDoWik-183" style="edgeStyle=orthogonalEdgeStyle;orthogonalLoop=1;jettySize=auto;html=1;exitX=0;exitY=0.242;exitDx=0;exitDy=0;startArrow=none;startFill=0;endArrow=oval;endFill=0;fontSize=16;fontColor=#000000;exitPerimeter=0;curved=1;" edge="1" parent="8BITRThTWmgqPgNDoWik-181" source="8BITRThTWmgqPgNDoWik-184">
          <mxGeometry relative="1" as="geometry">
            <mxPoint y="16.249999999999996" as="targetPoint" />
          </mxGeometry>
        </mxCell>
        <mxCell id="8BITRThTWmgqPgNDoWik-184" value="" style="rounded=1;whiteSpace=wrap;html=1;strokeColor=#666666;fillColor=#f5f5f5;fontSize=16;fontColor=#333333;" vertex="1" parent="8BITRThTWmgqPgNDoWik-181">
          <mxGeometry x="7.6923076923076925" y="4.999999999999999" width="15.96153846153846" height="46.562499999999986" as="geometry" />
        </mxCell>
        <mxCell id="8BITRThTWmgqPgNDoWik-185" value="" style="rounded=1;whiteSpace=wrap;html=1;strokeColor=#666666;fillColor=#f5f5f5;fontSize=16;fontColor=#333333;" vertex="1" parent="8BITRThTWmgqPgNDoWik-181">
          <mxGeometry x="53.84615384615385" y="5.625" width="21.153846153846153" height="15" as="geometry" />
        </mxCell>
        <mxCell id="8BITRThTWmgqPgNDoWik-186" style="edgeStyle=orthogonalEdgeStyle;rounded=0;orthogonalLoop=1;jettySize=auto;html=1;exitX=0.5;exitY=0;exitDx=0;exitDy=0;entryX=0.5;entryY=1;entryDx=0;entryDy=0;startArrow=none;startFill=0;endArrow=classic;endFill=1;fontSize=16;fontColor=#000000;endSize=1;" edge="1" parent="8BITRThTWmgqPgNDoWik-181" source="8BITRThTWmgqPgNDoWik-187" target="8BITRThTWmgqPgNDoWik-185">
          <mxGeometry relative="1" as="geometry" />
        </mxCell>
        <mxCell id="8BITRThTWmgqPgNDoWik-187" value="" style="rounded=1;whiteSpace=wrap;html=1;strokeColor=#666666;fillColor=#f5f5f5;fontSize=16;fontColor=#333333;" vertex="1" parent="8BITRThTWmgqPgNDoWik-181">
          <mxGeometry x="53.84615384615385" y="34.999999999999986" width="21.153846153846153" height="17.499999999999993" as="geometry" />
        </mxCell>
        <mxCell id="8BITRThTWmgqPgNDoWik-188" value="" style="rounded=1;whiteSpace=wrap;html=1;strokeColor=#666666;fillColor=#f5f5f5;fontSize=16;fontColor=#333333;" vertex="1" parent="8BITRThTWmgqPgNDoWik-181">
          <mxGeometry x="80.76923076923077" y="4.999999999999999" width="15.384615384615385" height="47.499999999999986" as="geometry" />
        </mxCell>
        <mxCell id="8BITRThTWmgqPgNDoWik-189" value="" style="rounded=1;whiteSpace=wrap;html=1;strokeColor=#666666;fillColor=#f5f5f5;fontSize=16;fontColor=#333333;" vertex="1" parent="8BITRThTWmgqPgNDoWik-181">
          <mxGeometry x="28.846153846153854" y="5.625" width="21.153846153846153" height="16.875" as="geometry" />
        </mxCell>
        <mxCell id="8BITRThTWmgqPgNDoWik-190" value="" style="endArrow=classic;html=1;fontSize=16;fontColor=#000000;exitX=1.01;exitY=0.815;exitDx=0;exitDy=0;entryX=0.013;entryY=0.468;entryDx=0;entryDy=0;entryPerimeter=0;exitPerimeter=0;startSize=1;endSize=1;" edge="1" parent="8BITRThTWmgqPgNDoWik-181" source="8BITRThTWmgqPgNDoWik-184" target="8BITRThTWmgqPgNDoWik-187">
          <mxGeometry width="50" height="50" relative="1" as="geometry">
            <mxPoint x="34.61538461538462" y="47.499999999999986" as="sourcePoint" />
            <mxPoint x="44.23076923076924" y="34.999999999999986" as="targetPoint" />
          </mxGeometry>
        </mxCell>
        <mxCell id="8BITRThTWmgqPgNDoWik-191" value="" style="endArrow=classic;html=1;fontSize=16;fontColor=#000000;exitX=0.999;exitY=0.219;exitDx=0;exitDy=0;entryX=0;entryY=0.574;entryDx=0;entryDy=0;entryPerimeter=0;exitPerimeter=0;endSize=1;" edge="1" parent="8BITRThTWmgqPgNDoWik-181" source="8BITRThTWmgqPgNDoWik-184" target="8BITRThTWmgqPgNDoWik-189">
          <mxGeometry width="50" height="50" relative="1" as="geometry">
            <mxPoint x="26.923076923076923" y="32.49999999999999" as="sourcePoint" />
            <mxPoint x="36.53846153846154" y="19.999999999999996" as="targetPoint" />
          </mxGeometry>
        </mxCell>
        <mxCell id="8BITRThTWmgqPgNDoWik-192" value="" style="endArrow=classic;html=1;fontSize=16;fontColor=#000000;entryX=0.016;entryY=0.561;entryDx=0;entryDy=0;entryPerimeter=0;endSize=1;" edge="1" parent="8BITRThTWmgqPgNDoWik-181" source="8BITRThTWmgqPgNDoWik-189" target="8BITRThTWmgqPgNDoWik-185">
          <mxGeometry width="50" height="50" relative="1" as="geometry">
            <mxPoint x="46.15384615384617" y="26.562499999999993" as="sourcePoint" />
            <mxPoint x="53.84615384615385" y="13.999999999999998" as="targetPoint" />
          </mxGeometry>
        </mxCell>
        <mxCell id="8BITRThTWmgqPgNDoWik-193" value="" style="endArrow=classic;html=1;fontSize=12;fontColor=#000000;endSize=1;" edge="1" parent="8BITRThTWmgqPgNDoWik-181" source="8BITRThTWmgqPgNDoWik-187">
          <mxGeometry width="50" height="50" relative="1" as="geometry">
            <mxPoint x="75" y="56.25" as="sourcePoint" />
            <mxPoint x="80.76923076923077" y="43.74999999999999" as="targetPoint" />
          </mxGeometry>
        </mxCell>
        <mxCell id="8BITRThTWmgqPgNDoWik-194" value="" style="group" vertex="1" connectable="0" parent="8BITRThTWmgqPgNDoWik-1">
          <mxGeometry x="860" y="200" width="113.46153846153845" height="67.5" as="geometry" />
        </mxCell>
        <mxCell id="8BITRThTWmgqPgNDoWik-195" value="" style="rounded=1;whiteSpace=wrap;html=1;fillColor=#FFB570;fontSize=16;" vertex="1" parent="8BITRThTWmgqPgNDoWik-194">
          <mxGeometry x="3.8461538461538463" width="96.15384615384617" height="60" as="geometry" />
        </mxCell>
        <mxCell id="8BITRThTWmgqPgNDoWik-196" style="edgeStyle=orthogonalEdgeStyle;orthogonalLoop=1;jettySize=auto;html=1;exitX=0;exitY=0.242;exitDx=0;exitDy=0;startArrow=none;startFill=0;endArrow=oval;endFill=0;fontSize=16;fontColor=#000000;exitPerimeter=0;curved=1;" edge="1" parent="8BITRThTWmgqPgNDoWik-194" source="8BITRThTWmgqPgNDoWik-197">
          <mxGeometry relative="1" as="geometry">
            <mxPoint y="16.249999999999996" as="targetPoint" />
          </mxGeometry>
        </mxCell>
        <mxCell id="8BITRThTWmgqPgNDoWik-197" value="" style="rounded=1;whiteSpace=wrap;html=1;strokeColor=#666666;fillColor=#f5f5f5;fontSize=16;fontColor=#333333;" vertex="1" parent="8BITRThTWmgqPgNDoWik-194">
          <mxGeometry x="7.6923076923076925" y="4.999999999999999" width="15.96153846153846" height="46.562499999999986" as="geometry" />
        </mxCell>
        <mxCell id="8BITRThTWmgqPgNDoWik-198" value="" style="rounded=1;whiteSpace=wrap;html=1;strokeColor=#666666;fillColor=#f5f5f5;fontSize=16;fontColor=#333333;" vertex="1" parent="8BITRThTWmgqPgNDoWik-194">
          <mxGeometry x="53.84615384615385" y="5.625" width="21.153846153846153" height="15" as="geometry" />
        </mxCell>
        <mxCell id="8BITRThTWmgqPgNDoWik-199" style="edgeStyle=orthogonalEdgeStyle;rounded=0;orthogonalLoop=1;jettySize=auto;html=1;exitX=0.5;exitY=0;exitDx=0;exitDy=0;entryX=0.5;entryY=1;entryDx=0;entryDy=0;startArrow=none;startFill=0;endArrow=classic;endFill=1;fontSize=16;fontColor=#000000;endSize=1;" edge="1" parent="8BITRThTWmgqPgNDoWik-194" source="8BITRThTWmgqPgNDoWik-200" target="8BITRThTWmgqPgNDoWik-198">
          <mxGeometry relative="1" as="geometry" />
        </mxCell>
        <mxCell id="8BITRThTWmgqPgNDoWik-200" value="" style="rounded=1;whiteSpace=wrap;html=1;strokeColor=#666666;fillColor=#f5f5f5;fontSize=16;fontColor=#333333;" vertex="1" parent="8BITRThTWmgqPgNDoWik-194">
          <mxGeometry x="53.84615384615385" y="34.999999999999986" width="21.153846153846153" height="17.499999999999993" as="geometry" />
        </mxCell>
        <mxCell id="8BITRThTWmgqPgNDoWik-201" value="" style="rounded=1;whiteSpace=wrap;html=1;strokeColor=#666666;fillColor=#f5f5f5;fontSize=16;fontColor=#333333;" vertex="1" parent="8BITRThTWmgqPgNDoWik-194">
          <mxGeometry x="80.76923076923077" y="4.999999999999999" width="15.384615384615385" height="47.499999999999986" as="geometry" />
        </mxCell>
        <mxCell id="8BITRThTWmgqPgNDoWik-202" value="" style="rounded=1;whiteSpace=wrap;html=1;strokeColor=#666666;fillColor=#f5f5f5;fontSize=16;fontColor=#333333;" vertex="1" parent="8BITRThTWmgqPgNDoWik-194">
          <mxGeometry x="28.846153846153854" y="5.625" width="21.153846153846153" height="16.875" as="geometry" />
        </mxCell>
        <mxCell id="8BITRThTWmgqPgNDoWik-203" value="" style="endArrow=classic;html=1;fontSize=16;fontColor=#000000;exitX=1.01;exitY=0.815;exitDx=0;exitDy=0;entryX=0.013;entryY=0.468;entryDx=0;entryDy=0;entryPerimeter=0;exitPerimeter=0;startSize=1;endSize=1;" edge="1" parent="8BITRThTWmgqPgNDoWik-194" source="8BITRThTWmgqPgNDoWik-197" target="8BITRThTWmgqPgNDoWik-200">
          <mxGeometry width="50" height="50" relative="1" as="geometry">
            <mxPoint x="34.61538461538462" y="47.499999999999986" as="sourcePoint" />
            <mxPoint x="44.23076923076924" y="34.999999999999986" as="targetPoint" />
          </mxGeometry>
        </mxCell>
        <mxCell id="8BITRThTWmgqPgNDoWik-204" value="" style="endArrow=classic;html=1;fontSize=16;fontColor=#000000;exitX=0.999;exitY=0.219;exitDx=0;exitDy=0;entryX=0;entryY=0.574;entryDx=0;entryDy=0;entryPerimeter=0;exitPerimeter=0;endSize=1;" edge="1" parent="8BITRThTWmgqPgNDoWik-194" source="8BITRThTWmgqPgNDoWik-197" target="8BITRThTWmgqPgNDoWik-202">
          <mxGeometry width="50" height="50" relative="1" as="geometry">
            <mxPoint x="26.923076923076923" y="32.49999999999999" as="sourcePoint" />
            <mxPoint x="36.53846153846154" y="19.999999999999996" as="targetPoint" />
          </mxGeometry>
        </mxCell>
        <mxCell id="8BITRThTWmgqPgNDoWik-205" value="" style="endArrow=classic;html=1;fontSize=16;fontColor=#000000;entryX=0.016;entryY=0.561;entryDx=0;entryDy=0;entryPerimeter=0;endSize=1;" edge="1" parent="8BITRThTWmgqPgNDoWik-194" source="8BITRThTWmgqPgNDoWik-202" target="8BITRThTWmgqPgNDoWik-198">
          <mxGeometry width="50" height="50" relative="1" as="geometry">
            <mxPoint x="46.15384615384617" y="26.562499999999993" as="sourcePoint" />
            <mxPoint x="53.84615384615385" y="13.999999999999998" as="targetPoint" />
          </mxGeometry>
        </mxCell>
        <mxCell id="8BITRThTWmgqPgNDoWik-206" value="" style="endArrow=classic;html=1;fontSize=12;fontColor=#000000;endSize=1;" edge="1" parent="8BITRThTWmgqPgNDoWik-194" source="8BITRThTWmgqPgNDoWik-200">
          <mxGeometry width="50" height="50" relative="1" as="geometry">
            <mxPoint x="75" y="56.25" as="sourcePoint" />
            <mxPoint x="80.76923076923077" y="43.74999999999999" as="targetPoint" />
          </mxGeometry>
        </mxCell>
        <mxCell id="8BITRThTWmgqPgNDoWik-207" value="" style="group" vertex="1" connectable="0" parent="8BITRThTWmgqPgNDoWik-1">
          <mxGeometry x="860" y="270" width="113.46153846153845" height="67.5" as="geometry" />
        </mxCell>
        <mxCell id="8BITRThTWmgqPgNDoWik-208" value="" style="rounded=1;whiteSpace=wrap;html=1;fillColor=#FFB570;fontSize=16;" vertex="1" parent="8BITRThTWmgqPgNDoWik-207">
          <mxGeometry x="3.8461538461538463" width="96.15384615384617" height="60" as="geometry" />
        </mxCell>
        <mxCell id="8BITRThTWmgqPgNDoWik-209" style="edgeStyle=orthogonalEdgeStyle;orthogonalLoop=1;jettySize=auto;html=1;exitX=0;exitY=0.242;exitDx=0;exitDy=0;startArrow=none;startFill=0;endArrow=oval;endFill=0;fontSize=16;fontColor=#000000;exitPerimeter=0;curved=1;" edge="1" parent="8BITRThTWmgqPgNDoWik-207" source="8BITRThTWmgqPgNDoWik-210">
          <mxGeometry relative="1" as="geometry">
            <mxPoint y="16.249999999999996" as="targetPoint" />
          </mxGeometry>
        </mxCell>
        <mxCell id="8BITRThTWmgqPgNDoWik-210" value="" style="rounded=1;whiteSpace=wrap;html=1;strokeColor=#666666;fillColor=#f5f5f5;fontSize=16;fontColor=#333333;" vertex="1" parent="8BITRThTWmgqPgNDoWik-207">
          <mxGeometry x="7.6923076923076925" y="4.999999999999999" width="15.96153846153846" height="46.562499999999986" as="geometry" />
        </mxCell>
        <mxCell id="8BITRThTWmgqPgNDoWik-211" value="" style="rounded=1;whiteSpace=wrap;html=1;strokeColor=#666666;fillColor=#f5f5f5;fontSize=16;fontColor=#333333;" vertex="1" parent="8BITRThTWmgqPgNDoWik-207">
          <mxGeometry x="53.84615384615385" y="5.625" width="21.153846153846153" height="15" as="geometry" />
        </mxCell>
        <mxCell id="8BITRThTWmgqPgNDoWik-212" style="edgeStyle=orthogonalEdgeStyle;rounded=0;orthogonalLoop=1;jettySize=auto;html=1;exitX=0.5;exitY=0;exitDx=0;exitDy=0;entryX=0.5;entryY=1;entryDx=0;entryDy=0;startArrow=none;startFill=0;endArrow=classic;endFill=1;fontSize=16;fontColor=#000000;endSize=1;" edge="1" parent="8BITRThTWmgqPgNDoWik-207" source="8BITRThTWmgqPgNDoWik-213" target="8BITRThTWmgqPgNDoWik-211">
          <mxGeometry relative="1" as="geometry" />
        </mxCell>
        <mxCell id="8BITRThTWmgqPgNDoWik-213" value="" style="rounded=1;whiteSpace=wrap;html=1;strokeColor=#666666;fillColor=#f5f5f5;fontSize=16;fontColor=#333333;" vertex="1" parent="8BITRThTWmgqPgNDoWik-207">
          <mxGeometry x="53.84615384615385" y="34.999999999999986" width="21.153846153846153" height="17.499999999999993" as="geometry" />
        </mxCell>
        <mxCell id="8BITRThTWmgqPgNDoWik-214" value="" style="rounded=1;whiteSpace=wrap;html=1;strokeColor=#666666;fillColor=#f5f5f5;fontSize=16;fontColor=#333333;" vertex="1" parent="8BITRThTWmgqPgNDoWik-207">
          <mxGeometry x="80.76923076923077" y="4.999999999999999" width="15.384615384615385" height="47.499999999999986" as="geometry" />
        </mxCell>
        <mxCell id="8BITRThTWmgqPgNDoWik-215" value="" style="rounded=1;whiteSpace=wrap;html=1;strokeColor=#666666;fillColor=#f5f5f5;fontSize=16;fontColor=#333333;" vertex="1" parent="8BITRThTWmgqPgNDoWik-207">
          <mxGeometry x="28.846153846153854" y="5.625" width="21.153846153846153" height="16.875" as="geometry" />
        </mxCell>
        <mxCell id="8BITRThTWmgqPgNDoWik-216" value="" style="endArrow=classic;html=1;fontSize=16;fontColor=#000000;exitX=1.01;exitY=0.815;exitDx=0;exitDy=0;entryX=0.013;entryY=0.468;entryDx=0;entryDy=0;entryPerimeter=0;exitPerimeter=0;startSize=1;endSize=1;" edge="1" parent="8BITRThTWmgqPgNDoWik-207" source="8BITRThTWmgqPgNDoWik-210" target="8BITRThTWmgqPgNDoWik-213">
          <mxGeometry width="50" height="50" relative="1" as="geometry">
            <mxPoint x="34.61538461538462" y="47.499999999999986" as="sourcePoint" />
            <mxPoint x="44.23076923076924" y="34.999999999999986" as="targetPoint" />
          </mxGeometry>
        </mxCell>
        <mxCell id="8BITRThTWmgqPgNDoWik-217" value="" style="endArrow=classic;html=1;fontSize=16;fontColor=#000000;exitX=0.999;exitY=0.219;exitDx=0;exitDy=0;entryX=0;entryY=0.574;entryDx=0;entryDy=0;entryPerimeter=0;exitPerimeter=0;endSize=1;" edge="1" parent="8BITRThTWmgqPgNDoWik-207" source="8BITRThTWmgqPgNDoWik-210" target="8BITRThTWmgqPgNDoWik-215">
          <mxGeometry width="50" height="50" relative="1" as="geometry">
            <mxPoint x="26.923076923076923" y="32.49999999999999" as="sourcePoint" />
            <mxPoint x="36.53846153846154" y="19.999999999999996" as="targetPoint" />
          </mxGeometry>
        </mxCell>
        <mxCell id="8BITRThTWmgqPgNDoWik-218" value="" style="endArrow=classic;html=1;fontSize=16;fontColor=#000000;entryX=0.016;entryY=0.561;entryDx=0;entryDy=0;entryPerimeter=0;endSize=1;" edge="1" parent="8BITRThTWmgqPgNDoWik-207" source="8BITRThTWmgqPgNDoWik-215" target="8BITRThTWmgqPgNDoWik-211">
          <mxGeometry width="50" height="50" relative="1" as="geometry">
            <mxPoint x="46.15384615384617" y="26.562499999999993" as="sourcePoint" />
            <mxPoint x="53.84615384615385" y="13.999999999999998" as="targetPoint" />
          </mxGeometry>
        </mxCell>
        <mxCell id="8BITRThTWmgqPgNDoWik-219" value="" style="endArrow=classic;html=1;fontSize=12;fontColor=#000000;endSize=1;" edge="1" parent="8BITRThTWmgqPgNDoWik-207" source="8BITRThTWmgqPgNDoWik-213">
          <mxGeometry width="50" height="50" relative="1" as="geometry">
            <mxPoint x="75" y="56.25" as="sourcePoint" />
            <mxPoint x="80.76923076923077" y="43.74999999999999" as="targetPoint" />
          </mxGeometry>
        </mxCell>
        <mxCell id="8BITRThTWmgqPgNDoWik-221" value="" style="group" vertex="1" connectable="0" parent="8BITRThTWmgqPgNDoWik-1">
          <mxGeometry x="860" y="340" width="113.46153846153845" height="67.5" as="geometry" />
        </mxCell>
        <mxCell id="8BITRThTWmgqPgNDoWik-222" value="" style="rounded=1;whiteSpace=wrap;html=1;fillColor=#FFB570;fontSize=16;" vertex="1" parent="8BITRThTWmgqPgNDoWik-221">
          <mxGeometry x="3.8461538461538463" width="96.15384615384617" height="60" as="geometry" />
        </mxCell>
        <mxCell id="8BITRThTWmgqPgNDoWik-223" style="edgeStyle=orthogonalEdgeStyle;orthogonalLoop=1;jettySize=auto;html=1;exitX=0;exitY=0.242;exitDx=0;exitDy=0;startArrow=none;startFill=0;endArrow=oval;endFill=0;fontSize=16;fontColor=#000000;exitPerimeter=0;curved=1;" edge="1" parent="8BITRThTWmgqPgNDoWik-221" source="8BITRThTWmgqPgNDoWik-224">
          <mxGeometry relative="1" as="geometry">
            <mxPoint y="16.249999999999996" as="targetPoint" />
          </mxGeometry>
        </mxCell>
        <mxCell id="8BITRThTWmgqPgNDoWik-224" value="" style="rounded=1;whiteSpace=wrap;html=1;strokeColor=#666666;fillColor=#f5f5f5;fontSize=16;fontColor=#333333;" vertex="1" parent="8BITRThTWmgqPgNDoWik-221">
          <mxGeometry x="7.6923076923076925" y="4.999999999999999" width="15.96153846153846" height="46.562499999999986" as="geometry" />
        </mxCell>
        <mxCell id="8BITRThTWmgqPgNDoWik-225" value="" style="rounded=1;whiteSpace=wrap;html=1;strokeColor=#666666;fillColor=#f5f5f5;fontSize=16;fontColor=#333333;" vertex="1" parent="8BITRThTWmgqPgNDoWik-221">
          <mxGeometry x="53.84615384615385" y="5.625" width="21.153846153846153" height="15" as="geometry" />
        </mxCell>
        <mxCell id="8BITRThTWmgqPgNDoWik-226" style="edgeStyle=orthogonalEdgeStyle;rounded=0;orthogonalLoop=1;jettySize=auto;html=1;exitX=0.5;exitY=0;exitDx=0;exitDy=0;entryX=0.5;entryY=1;entryDx=0;entryDy=0;startArrow=none;startFill=0;endArrow=classic;endFill=1;fontSize=16;fontColor=#000000;endSize=1;" edge="1" parent="8BITRThTWmgqPgNDoWik-221" source="8BITRThTWmgqPgNDoWik-227" target="8BITRThTWmgqPgNDoWik-225">
          <mxGeometry relative="1" as="geometry" />
        </mxCell>
        <mxCell id="8BITRThTWmgqPgNDoWik-227" value="" style="rounded=1;whiteSpace=wrap;html=1;strokeColor=#666666;fillColor=#f5f5f5;fontSize=16;fontColor=#333333;" vertex="1" parent="8BITRThTWmgqPgNDoWik-221">
          <mxGeometry x="53.84615384615385" y="34.999999999999986" width="21.153846153846153" height="17.499999999999993" as="geometry" />
        </mxCell>
        <mxCell id="8BITRThTWmgqPgNDoWik-228" value="" style="rounded=1;whiteSpace=wrap;html=1;strokeColor=#666666;fillColor=#f5f5f5;fontSize=16;fontColor=#333333;" vertex="1" parent="8BITRThTWmgqPgNDoWik-221">
          <mxGeometry x="80.76923076923077" y="4.999999999999999" width="15.384615384615385" height="47.499999999999986" as="geometry" />
        </mxCell>
        <mxCell id="8BITRThTWmgqPgNDoWik-229" value="" style="rounded=1;whiteSpace=wrap;html=1;strokeColor=#666666;fillColor=#f5f5f5;fontSize=16;fontColor=#333333;" vertex="1" parent="8BITRThTWmgqPgNDoWik-221">
          <mxGeometry x="28.846153846153854" y="5.625" width="21.153846153846153" height="16.875" as="geometry" />
        </mxCell>
        <mxCell id="8BITRThTWmgqPgNDoWik-230" value="" style="endArrow=classic;html=1;fontSize=16;fontColor=#000000;exitX=1.01;exitY=0.815;exitDx=0;exitDy=0;entryX=0.013;entryY=0.468;entryDx=0;entryDy=0;entryPerimeter=0;exitPerimeter=0;startSize=1;endSize=1;" edge="1" parent="8BITRThTWmgqPgNDoWik-221" source="8BITRThTWmgqPgNDoWik-224" target="8BITRThTWmgqPgNDoWik-227">
          <mxGeometry width="50" height="50" relative="1" as="geometry">
            <mxPoint x="34.61538461538462" y="47.499999999999986" as="sourcePoint" />
            <mxPoint x="44.23076923076924" y="34.999999999999986" as="targetPoint" />
          </mxGeometry>
        </mxCell>
        <mxCell id="8BITRThTWmgqPgNDoWik-231" value="" style="endArrow=classic;html=1;fontSize=16;fontColor=#000000;exitX=0.999;exitY=0.219;exitDx=0;exitDy=0;entryX=0;entryY=0.574;entryDx=0;entryDy=0;entryPerimeter=0;exitPerimeter=0;endSize=1;" edge="1" parent="8BITRThTWmgqPgNDoWik-221" source="8BITRThTWmgqPgNDoWik-224" target="8BITRThTWmgqPgNDoWik-229">
          <mxGeometry width="50" height="50" relative="1" as="geometry">
            <mxPoint x="26.923076923076923" y="32.49999999999999" as="sourcePoint" />
            <mxPoint x="36.53846153846154" y="19.999999999999996" as="targetPoint" />
          </mxGeometry>
        </mxCell>
        <mxCell id="8BITRThTWmgqPgNDoWik-232" value="" style="endArrow=classic;html=1;fontSize=16;fontColor=#000000;entryX=0.016;entryY=0.561;entryDx=0;entryDy=0;entryPerimeter=0;endSize=1;" edge="1" parent="8BITRThTWmgqPgNDoWik-221" source="8BITRThTWmgqPgNDoWik-229" target="8BITRThTWmgqPgNDoWik-225">
          <mxGeometry width="50" height="50" relative="1" as="geometry">
            <mxPoint x="46.15384615384617" y="26.562499999999993" as="sourcePoint" />
            <mxPoint x="53.84615384615385" y="13.999999999999998" as="targetPoint" />
          </mxGeometry>
        </mxCell>
        <mxCell id="8BITRThTWmgqPgNDoWik-233" value="" style="endArrow=classic;html=1;fontSize=12;fontColor=#000000;endSize=1;" edge="1" parent="8BITRThTWmgqPgNDoWik-221" source="8BITRThTWmgqPgNDoWik-227">
          <mxGeometry width="50" height="50" relative="1" as="geometry">
            <mxPoint x="75" y="56.25" as="sourcePoint" />
            <mxPoint x="80.76923076923077" y="43.74999999999999" as="targetPoint" />
          </mxGeometry>
        </mxCell>
        <mxCell id="8BITRThTWmgqPgNDoWik-234" value="" style="endArrow=none;dashed=1;html=1;fontSize=12;fontColor=#000000;exitX=0.44;exitY=0;exitDx=0;exitDy=0;exitPerimeter=0;entryX=0.5;entryY=1;entryDx=0;entryDy=0;" edge="1" parent="8BITRThTWmgqPgNDoWik-1" source="8BITRThTWmgqPgNDoWik-126" target="8BITRThTWmgqPgNDoWik-222">
          <mxGeometry width="50" height="50" relative="1" as="geometry">
            <mxPoint x="770" y="480" as="sourcePoint" />
            <mxPoint x="820" y="430" as="targetPoint" />
          </mxGeometry>
        </mxCell>
      </root>
    </mxGraphModel>
  </diagram>
</mxfile>
